<?xml version="1.0" encoding="utf-8"?>
<!-- Generator: Adobe Illustrator 24.3.0, SVG Export Plug-In . SVG Version: 6.00 Build 0)  -->
<svg version="1.1" id="Capa_1" xmlns="http://www.w3.org/2000/svg" xmlns:xlink="http://www.w3.org/1999/xlink" x="0px" y="0px"
	 viewBox="0 0 138.4 39" style="enable-background:new 0 0 138.4 39;" xml:space="preserve">
<style type="text/css">
	.st0{fill:#1A1A1A;}
	.st1{fill:#ED1C24;}
</style>
<g transform="translate(0)">
	<g transform="translate(68.128 19.5)">
		<g transform="translate(-68.128 -19.5)">
			<path class="st0" d="M0,33.9h25.9V39H0V33.9z"/>
			<path class="st1" d="M16.3,17.1L12.9,5L9.5,17.1L8,22.5l-1.8,6.2H0L8.7,0h8.6l8.7,28.7h-6.5l-1.8-6.2L16.3,17.1z"/>
			<path class="st0" d="M30,0h5.9v23.3h12.4v5.4H30V0z"/>
			<path class="st0" d="M66.5,17.1L63.1,5l-3.4,12.1l-1.5,5.4l-1.8,6.2h-6.2L58.9,0h8.6l8.7,28.7h-6.5L68,22.5L66.5,17.1z"/>
			<path class="st0" d="M80.2,0h6.5l7.6,16.9L101.9,0h6.5v28.7h-5.8V10.4l-6.2,14.5H92l-6.2-14.5v18.3h-5.6V0z"/>
			<path class="st0" d="M114.2,23V5.8c0-3.9,1.8-5.8,5.8-5.8h10.5c3.9,0,5.8,1.8,5.8,5.8V23c0,3.9-1.8,5.8-5.8,5.8h-10.6
				C116,28.7,114.2,26.9,114.2,23z M129.5,23.3c0.6,0,0.8-0.2,0.8-0.8V6.2c0-0.6-0.2-0.8-0.8-0.8h-8.6c-0.6,0-0.8,0.2-0.8,0.8v16.2
				c0,0.6,0.2,0.8,0.8,0.8H129.5z"/>
		</g>
	</g>
</g>
</svg>
