<svg xmlns="http://www.w3.org/2000/svg" width="136.3" height="39" viewBox="0 0 136.3 39">
  <g id="Capa_2" data-name="Capa 2">
    <g id="Capa_1-2" data-name="Capa 1">
      <g>
        <path d="M0,33.9H25.9V39H0Z" fill="#fff"/>
        <path d="M16.3,17.1,12.9,5,9.5,17.1,8,22.5,6.2,28.7H0L8.7,0h8.6L26,28.7H19.5l-1.8-6.2Z" fill="#ed1c24"/>
        <path d="M30,0h5.9V23.3H48.3v5.4H30Z" fill="#fff"/>
        <path d="M66.5,17.1,63.1,5,59.7,17.1l-1.5,5.4-1.8,6.2H50.2L58.9,0h8.6l8.7,28.7H69.7L68,22.5Z" fill="#fff"/>
        <path d="M80.2,0h6.5l7.6,16.9L101.9,0h6.5V28.7h-5.8V10.4L96.4,24.9H92L85.8,10.4V28.7H80.2Z" fill="#fff"/>
        <path d="M114.2,23V5.8C114.2,1.9,116,0,120,0h10.5c3.9,0,5.8,1.8,5.8,5.8V23c0,3.9-1.8,5.8-5.8,5.8H119.9C116,28.7,114.2,26.9,114.2,23Zm15.3.3c.6,0,.8-.2.8-.8V6.2c0-.6-.2-.8-.8-.8h-8.6c-.6,0-.8.2-.8.8V22.4c0,.6.2.8.8.8h8.6Z" fill="#fff"/>
      </g>
    </g>
  </g>
</svg>
